# xmcd
#
# Track frame offsets: 
#        150
#        18713
#        39147
#        60349
#        86215
#        109682
#        125913
#        148611
#        167878
#        192788
#        214618
#        241787
#        289631
#
# Disc length: 4168 seconds
#
# Revision: 0
# Processed by: cddbd v1.5.2PL0 Copyright (c) Steve Scherf et al.
# Submitted via: ExactAudioCopy v0.95b3
#
DISCID=b410460d
DTITLE=Robert Plant  - Nine lives - Now and Zen  [remastered with bonu
DTITLE=s tracks]
DYEAR=1900
DGENRE=
TTITLE0=Heaven Knows
TTITLE1=Dance on my Own
TTITLE2=Tall Cool One
TTITLE3=The Way I Feel
TTITLE4=Helen of Troy
TTITLE5=Billy's Revenge
TTITLE6=Ship of Fools
TTITLE7=Why
TTITLE8=White, Clean and Neat
TTITLE9=Walking Towards Paradise
TTITLE10=Billy's Revenge (Live)
TTITLE11=Ship Of Fools (Live)
TTITLE12=Tall Cool One (Live)
EXTD=
EXTT0=
EXTT1=
EXTT2=
EXTT3=
EXTT4=
EXTT5=
EXTT6=
EXTT7=
EXTT8=
EXTT9=
EXTT10=
EXTT11=
EXTT12=
PLAYORDER=
